<svg xmlns="http://www.w3.org/2000/svg" xmlns:xlink="http://www.w3.org/1999/xlink" version="1.1" width="256" height="256" viewBox="0 0 256 256" xml:space="preserve">
<desc>Created with Fabric.js 1.7.22</desc>
<defs>
</defs>
<g transform="translate(128 128) scale(0.72 0.72)" style="">
	<g style="stroke: none; stroke-width: 0; stroke-dasharray: none; stroke-linecap: butt; stroke-linejoin: miter; stroke-miterlimit: 10; fill: none; fill-rule: nonzero; opacity: 1;" transform="translate(-175.05 -175.05000000000004) scale(3.89 3.89)" >
	<path d="M 78.14 88 H 11.86 C 6.415 88 2 83.585 2 78.14 V 11.86 C 2 6.415 6.415 2 11.86 2 H 78.14 C 83.585 2 88 6.415 88 11.86 V 78.14 C 88 83.585 83.585 88 78.14 88 z" style="stroke: none; stroke-width: 1; stroke-dasharray: none; stroke-linecap: butt; stroke-linejoin: miter; stroke-miterlimit: 10; fill: rgb(255,255,255); fill-rule: nonzero; opacity: 1;" transform=" matrix(1 0 0 1 0 0) " stroke-linecap="round" />
	<path d="M 78.14 90 H 11.86 C 5.32 90 0 84.68 0 78.14 V 11.86 C 0 5.32 5.32 0 11.86 0 H 78.14 C 84.68 0 90 5.32 90 11.86 V 78.14 C 90 84.68 84.68 90 78.14 90 z M 11.86 4 C 7.526 4 4 7.526 4 11.86 V 78.14 C 4 82.474 7.526 86 11.86 86 H 78.14 c 4.334 0 7.86 -3.526 7.86 -7.86 V 11.86 C 86 7.526 82.474 4 78.14 4 H 11.86 z" style="stroke: none; stroke-width: 1; stroke-dasharray: none; stroke-linecap: butt; stroke-linejoin: miter; stroke-miterlimit: 10; fill: rgb(0,0,0); fill-rule: nonzero; opacity: 1;" transform=" matrix(1 0 0 1 0 0) " stroke-linecap="round" />
	<path d="M 45 88 H 11.86 C 6.415 88 2 83.585 2 78.14 V 11.86 C 2 6.415 6.415 2 11.86 2 H 45 V 88 z" style="stroke: none; stroke-width: 1; stroke-dasharray: none; stroke-linecap: butt; stroke-linejoin: miter; stroke-miterlimit: 10; fill: rgb(0,0,0); fill-rule: nonzero; opacity: 1;" transform=" matrix(1 0 0 1 0 0) " stroke-linecap="round" />
</g>
</g>
</svg>